<svg width="150" height="24" viewBox="0 0 150 24" fill="none" xmlns="http://www.w3.org/2000/svg">
<path d="M47.1318 16.2791C47.7323 15.3897 48.0367 14.3188 48.0367 13.0975C48.0367 11.8763 47.7526 10.8615 47.1903 9.98762C46.628 9.11374 45.8126 8.43446 44.7656 7.96887C43.7377 7.51163 42.5189 7.28003 41.1448 7.28003H34.4725V23.3429H38.0384V18.8709H41.1448C41.3071 18.8709 41.4444 18.8685 41.559 18.8625L44.6845 23.3429H48.6288L44.9578 18.0985C45.8759 17.6675 46.6065 17.0575 47.1318 16.2803V16.2791ZM44.4493 13.0975C44.4493 13.9726 44.1759 14.6244 43.6136 15.0912C43.0394 15.5676 42.1655 15.8087 41.0134 15.8087H38.0396V10.4079H41.0134C42.1655 10.4079 43.0406 10.6466 43.6148 11.1158C44.1759 11.5742 44.4481 12.2225 44.4481 13.0963L44.4493 13.0975Z" fill="#281953"/>
<path d="M55.7103 16.722H62.8697V13.6598H55.7103V10.3864H64.0635V7.28003H52.1443V23.3429H64.0635V20.2378H55.7103V16.722Z" fill="#281953"/>
<path d="M75.6388 18.5772L70.7644 7.28003H66.8904L73.9125 23.3429H77.1872L84.1866 7.28003H80.555L75.6388 18.5772Z" fill="#281953"/>
<path d="M95.9393 14.638C95.1956 14.3479 94.2345 14.0662 93.0885 13.8023C92.2671 13.6006 91.6129 13.4191 91.1437 13.2627C90.7092 13.1183 90.3498 12.9213 90.0729 12.6766C89.8377 12.4688 89.7231 12.205 89.7231 11.8707C89.7231 11.3634 89.9416 10.9646 90.3916 10.6518C90.8763 10.3164 91.6523 10.1457 92.6981 10.1457C93.3487 10.1457 94.0316 10.2447 94.7276 10.4393C95.426 10.6351 96.1053 10.9252 96.7476 11.3025L97.1045 11.5126L98.2685 8.64383L98.0249 8.48147C97.3373 8.02304 96.5112 7.66728 95.5704 7.42374C94.6381 7.18378 93.6782 7.06201 92.7184 7.06201C91.3312 7.06201 90.135 7.27929 89.1644 7.70668C88.1771 8.14242 87.425 8.74292 86.9271 9.49145C86.4293 10.2424 86.1774 11.0876 86.1774 12.0021C86.1774 13.0956 86.4687 13.9826 87.0441 14.6392C87.5993 15.2731 88.2738 15.7447 89.0486 16.042C89.7852 16.3249 90.7545 16.609 91.9305 16.8884C92.7518 17.0901 93.406 17.2716 93.8752 17.428C94.3086 17.5724 94.6667 17.773 94.9425 18.0225C95.1801 18.2386 95.2959 18.5072 95.2959 18.8427C95.2959 19.3166 95.0726 19.6915 94.6142 19.9887C94.1128 20.3147 93.3201 20.4794 92.2552 20.4794C91.3777 20.4794 90.4907 20.3278 89.6204 20.0269C88.7489 19.7273 88.0064 19.3369 87.413 18.8677L87.0513 18.5812L85.7691 21.4595L85.9697 21.6338C86.6478 22.22 87.573 22.694 88.7191 23.0426C89.8508 23.3876 91.0411 23.5619 92.254 23.5619C93.6412 23.5619 94.841 23.3458 95.8176 22.9184C96.812 22.4838 97.5689 21.8869 98.0655 21.1456C98.5634 20.4018 98.8165 19.5602 98.8165 18.6445C98.8165 17.5653 98.524 16.689 97.9473 16.0384C97.3922 15.414 96.7153 14.9424 95.9358 14.638H95.9393Z" fill="#281953"/>
<path d="M112.984 16.1874C112.984 18.9857 111.832 20.3455 109.462 20.3455C107.092 20.3455 105.917 18.9857 105.917 16.1874V7.27905H102.351V16.2972C102.351 18.6061 102.984 20.4135 104.232 21.6694C105.479 22.9253 107.232 23.5616 109.44 23.5616C111.649 23.5616 113.398 22.9241 114.639 21.6682C115.879 20.4135 116.508 18.6061 116.508 16.2972V7.27905H112.985V16.1874H112.984Z" fill="#281953"/>
<path d="M133.069 16.2781C133.67 15.3887 133.974 14.3178 133.974 13.0966C133.974 11.8753 133.69 10.8605 133.128 9.98665C132.566 9.11157 131.75 8.43229 130.703 7.96789C129.675 7.51066 128.456 7.27905 127.082 7.27905H120.41V23.342H123.976V18.8699H127.082C127.245 18.8699 127.382 18.8675 127.497 18.8615L130.622 23.342H134.566L130.895 18.0975C131.813 17.6665 132.544 17.0565 133.069 16.2793V16.2781ZM130.387 13.0966C130.387 13.9716 130.113 14.6235 129.551 15.0902C128.977 15.5666 128.102 15.8077 126.951 15.8077H123.977V10.4069H126.951C128.103 10.4069 128.978 10.6456 129.552 11.1148C130.113 11.5732 130.386 12.2215 130.386 13.0954L130.387 13.0966Z" fill="#281953"/>
<path d="M141.648 20.2378V16.722H148.807V13.6598H141.648V10.3864H150.001V7.28003H138.082V23.3429H150.001V20.2378H141.648Z" fill="#281953"/>
<path d="M0 0L8.11323 5.90466V22.9596H15.0314V6.37861H29.1269V0H0Z" fill="#281953"/>
<path d="M0 0L8.11323 5.90466V22.9596H15.0314V6.37861H29.1269V0H0Z" fill="url(#paint0_radial_4207_4545)"/>
<path d="M29.1271 0H27.7709C22.0823 0 16.9799 2.27185 13.402 6.39771C9.99129 10.3302 8.1134 15.731 8.1134 21.6046V22.9608H15.3563V21.6046C15.3563 17.8322 16.4105 14.3462 18.3254 11.789C20.5531 8.8152 23.8182 7.24293 27.7709 7.24293H29.1271V0Z" fill="#281953"/>
<defs>
<radialGradient id="paint0_radial_4207_4545" cx="0" cy="0" r="1" gradientUnits="userSpaceOnUse" gradientTransform="translate(11.6995 34.1434) rotate(-90) scale(43.8134 43.8134)">
<stop stop-color="#523594"/>
<stop offset="1" stop-color="#F04F5B"/>
</radialGradient>
</defs>
</svg>
